<?xml version="1.0" encoding="UTF-8"?>
<svg width="188px" height="134px" viewBox="0 0 188 134" version="1.1" xmlns="http://www.w3.org/2000/svg" xmlns:xlink="http://www.w3.org/1999/xlink">
    <!-- Generator: Sketch 45.2 (43514) - http://www.bohemiancoding.com/sketch -->
    <title>Artboard</title>
    <desc>Created with Sketch.</desc>
    <defs>
        <path d="M0,3.6804717 C0,1.64830189 1.64212,0 3.66,0 C5.68154,0 7.32,1.64707547 7.32,3.6804717 L7.32,23.3006604 C7.32,25.3328302 5.67788,26.9811321 3.66,26.9811321 C1.63846,26.9811321 0,25.3340566 0,23.3006604 L0,3.6804717 L0,3.6804717 Z" id="path-1"></path>
    </defs>
    <g id="Page-1" stroke="none" stroke-width="1" fill="none" fill-rule="evenodd" opacity="0.2">
        <g id="Artboard">
            <g id="Alert" transform="translate(94.500000, 67.500000) rotate(-10.000000) translate(-94.500000, -67.500000) translate(64.000000, 35.000000)">
                <path d="M6.8869,65 C6.64778,65 6.40744,64.9288679 6.20126,64.7878302 C5.8194,64.5278302 5.61688,64.0716038 5.67788,63.6104717 L7.40662,50.5982075 C2.62666,45.0425472 0,37.9661321 0,30.6039623 C0,13.7284906 13.6823,0 30.5,0 C47.3177,0 61,13.7284906 61,30.6039623 C61,47.4806604 47.3177,61.2091509 30.5,61.2091509 C26.28124,61.2091509 22.20644,60.3641509 18.37564,58.6962264 L7.4847,64.8430189 C7.29804,64.9484906 7.09308,65 6.8869,65 L6.8869,65 Z M30.5,2.45283019 C15.02796,2.45283019 2.44,15.0812264 2.44,30.6039623 C2.44,37.5503774 4.98248,44.2208491 9.59774,49.3865094 C9.83686,49.6538679 9.94666,50.0119811 9.89908,50.3688679 L8.41922,61.5010377 L17.71562,56.2556604 C18.056,56.0631132 18.46714,56.0471698 18.82094,56.210283 C22.49436,57.900283 26.42398,58.7563208 30.5,58.7563208 C45.97204,58.7563208 58.56,46.1266981 58.56,30.6039623 C58.56,15.0812264 45.97204,2.45283019 30.5,2.45283019 L30.5,2.45283019 Z" id="Fill-982" fill="#2AC3B6" fill-rule="nonzero"></path>
                <g id="Group-985" transform="translate(26.840000, 12.264151)">
                    <g id="Fill-983-Clipped">
                        <mask id="mask-2" fill="white">
                            <use xlink:href="#path-1"></use>
                        </mask>
                        <g id="path-1"></g>
                        <path d="M3.66,29.4339623 C0.29646,29.4339623 -2.44,26.6831132 -2.44,23.3006604 L-2.44,3.6804717 C-2.44,0.298018868 0.29646,-2.45283019 3.66,-2.45283019 C7.02354,-2.45283019 9.76,0.298018868 9.76,3.6804717 L9.76,23.3006604 C9.76,26.6831132 7.02354,29.4339623 3.66,29.4339623 L3.66,29.4339623 Z M3.66,2.45283019 C2.98778,2.45283019 2.44,3.00349057 2.44,3.6804717 L2.44,23.3006604 C2.44,23.9776415 2.98778,24.5283019 3.66,24.5283019 C4.33222,24.5283019 4.88,23.9776415 4.88,23.3006604 L4.88,3.6804717 C4.88,3.00349057 4.33222,2.45283019 3.66,2.45283019 L3.66,2.45283019 Z" id="Fill-983" fill="#2AC3B6" fill-rule="nonzero" mask="url(#mask-2)"></path>
                    </g>
                </g>
                <path d="M30.5,49.0566038 C28.48212,49.0566038 26.84,47.4058491 26.84,45.3773585 C26.84,43.3488679 28.48212,41.6981132 30.5,41.6981132 C32.51788,41.6981132 34.16,43.3488679 34.16,45.3773585 C34.16,47.4058491 32.51788,49.0566038 30.5,49.0566038 L30.5,49.0566038 Z M30.5,44.1509434 C29.82778,44.1509434 29.28,44.7003774 29.28,45.3773585 C29.28,46.0543396 29.82778,46.6037736 30.5,46.6037736 C31.17222,46.6037736 31.72,46.0543396 31.72,45.3773585 C31.72,44.7003774 31.17222,44.1509434 30.5,44.1509434 L30.5,44.1509434 Z" id="Fill-986" fill="#2AC3B6" fill-rule="nonzero"></path>
            </g>
        </g>
    </g>
</svg>