<?xml version="1.0" encoding="UTF-8"?>
<svg width="50px" height="50px" viewBox="0 0 50 50" version="1.1" xmlns="http://www.w3.org/2000/svg" xmlns:xlink="http://www.w3.org/1999/xlink">
    <!-- Generator: Sketch 45.2 (43514) - http://www.bohemiancoding.com/sketch -->
    <title>noun_807781_cc</title>
    <desc>Created with Sketch.</desc>
    <defs></defs>
    <g id="Page-1" stroke="none" stroke-width="1" fill="none" fill-rule="evenodd">
        <g id="noun_807781_cc" fill-rule="nonzero" fill="#FFFFFF">
            <path d="M42.75,19.5454545 L41.95,19.5454545 L41.95,6.51515152 L30.35,6.51515152 L27.1,0 L14.5,0 L14.5,6.51515152 L14.5,8.13131313 L14.5,20 C11.7,21.010101 9.65,23.6868687 9.65,26.8686869 L9.65,35.8585859 L5.6,35.8585859 C3.4,35.8585859 1.55,34.040404 1.55,31.7676768 L1.55,21.969697 C1.55,19.7474747 3.35,17.8787879 5.6,17.8787879 C8.7,17.8787879 11.25,15.3030303 11.25,12.1717172 C11.25,9.04040404 8.7,6.46464646 5.6,6.46464646 L0.8,6.46464646 L0.8,8.08080808 L5.65,8.08080808 C7.85,8.08080808 9.7,9.8989899 9.7,12.1717172 C9.7,14.4444444 7.9,16.2626263 5.65,16.2626263 C2.55,16.3131313 0,18.8383838 0,21.969697 L0,31.7676768 C0,34.8989899 2.55,37.4747475 5.65,37.4747475 L9.75,37.4747475 C10.15,40.8585859 12.75,43.5353535 16.1,43.8888889 L16.1,49.6969697 L17.7,49.6969697 L17.7,43.989899 L41.9,43.989899 L41.9,49.6969697 L43.5,49.6969697 L43.5,43.8888889 C47.15,43.4848485 50,40.4040404 50,36.6666667 L50,26.8686869 C50,22.8282828 46.75,19.5454545 42.75,19.5454545 Z M16.15,1.61616162 L26.15,1.61616162 L28.55,6.51515152 L16.15,6.51515152 L16.15,1.61616162 Z M16.15,19.5454545 L16.15,8.13131313 L31.15,8.13131313 L40.35,8.13131313 L40.35,19.5454545 L16.95,19.5454545 L16.15,19.5454545 Z M48.4,36.6666667 C48.4,39.7979798 45.85,42.3737374 42.75,42.3737374 L16.95,42.3737374 C13.85,42.3737374 11.3,39.7979798 11.3,36.6666667 L11.3,26.8686869 C11.3,23.7373737 13.85,21.1616162 16.95,21.1616162 L41.95,21.1616162 L42.75,21.1616162 C45.85,21.1616162 48.4,23.7373737 48.4,26.8686869 L48.4,36.6666667 Z" id="Shape"></path>
        </g>
    </g>
</svg>